Format                           : MPEG-PS
File size                        : 583 MiB
Duration                         : 4mn 30s
Overall bit rate mode            : Variable
Overall bit rate                 : 18.1 Mbps

Video
ID                               : 224 (0xE0)
Format                           : MPEG Video
Format version                   : Version 2
Format profile                   : Main@High
Format settings, BVOP            : Yes
Format settings, Matrix          : Custom
Format settings, GOP             : M=3, N=12
Duration                         : 4mn 29s
Bit rate mode                    : Variable
Bit rate                         : 17.4 Mbps
Maximum bit rate                 : 17.5 Mbps
Width                            : 1 920 pixels
Height                           : 1 080 pixels
Display aspect ratio             : 16:9
Frame rate                       : 25.000 fps
Color space                      : YUV
Chroma subsampling               : 4:2:0
Bit depth                        : 8 bits
Scan type                        : Interlaced
Scan order                       : Top Field First
Compression mode                 : Lossy
Bits/(Pixel*Frame)               : 0.335
Stream size                      : 558 MiB (96%)

Audio
ID                               : 192 (0xC0)
Format                           : MPEG Audio
Format version                   : Version 1
Format profile                   : Layer 2
Duration                         : 4mn 30s
Bit rate mode                    : Constant
Bit rate                         : 384 Kbps
Channel(s)                       : 2 channels
Sampling rate                    : 48.0 KHz
Compression mode                 : Lossy
Delay relative to video          : -40ms
Stream size                      : 12.4 MiB (2%)
